<?xml version="1.0" standalone="no"?>
<!DOCTYPE svg PUBLIC "-//W3C//DTD SVG 1.1//EN" "http://www.w3.org/Graphics/SVG/1.1/DTD/svg11.dtd" >
<svg xmlns="http://www.w3.org/2000/svg">
<metadata>Generated by IcoMoon</metadata>
<defs>
<font id="arcicon" horiz-adv-x="1024">
<font-face units-per-em="1024" ascent="960" descent="-64" />
<missing-glyph horiz-adv-x="1024" />
<glyph unicode="&#x20;" horiz-adv-x="512" d="" />
<glyph unicode="&#xe900;" glyph-name="arrow-down" d="M992.488-32.488h-746.352l300.328 300.332-484.787 484.787c-40.22 40.223-40.22 105.459 0 145.685 40.226 40.223 105.356 40.223 145.584 0l484.888-484.788 300.335 300.332v-746.352z" />
<glyph unicode="&#xe901;" glyph-name="arrow-up" d="M31.511 928.488h746.351l-300.327-300.332 484.786-484.787c40.22-40.223 40.22-105.458 0-145.685-40.226-40.223-105.356-40.223-145.584 0l-484.887 484.788-300.335-300.332v746.352z" />
<glyph unicode="&#xe902;" glyph-name="attr" d="M98.532 183.308c-36.714 0-69.56-30.911-69.56-67.623 0-36.71 32.846-69.561 69.56-69.561 36.709 0 67.623 32.851 67.623 69.561-0.001 36.712-30.914 67.623-67.623 67.623v0zM98.532 515.622c-36.714 0-69.56-30.908-69.56-67.622 0-36.709 32.846-67.621 69.56-67.621 36.709 0 67.623 30.911 67.623 67.621-0.001 36.715-30.914 67.622-67.623 67.622v0zM345.835 718.496h585.426c34.776 0 63.759 27.057 63.759 61.828 0 34.776-28.983 63.759-63.759 63.759h-585.426c-34.771 0-63.753-28.983-63.753-63.759 0-34.771 28.982-61.828 63.753-61.828v0zM98.532 849.877c-36.714 0-69.56-32.846-69.56-69.56 0-36.709 32.846-67.623 69.56-67.623 36.709 0 67.623 30.913 67.623 67.623-0.001 36.713-30.914 69.56-67.623 69.56v0zM931.261 511.76h-585.426c-34.771 0-63.753-28.983-63.753-63.759s28.982-63.76 63.753-63.76h585.426c34.776 0 63.759 28.984 63.759 63.76s-28.983 63.759-63.759 63.759v0zM931.261 179.443h-585.426c-34.771 0-63.753-28.982-63.753-63.758s28.982-63.758 63.753-63.758h585.426c34.776 0 63.759 28.983 63.759 63.758-0.001 34.777-28.983 63.758-63.759 63.758v0z" />
<glyph unicode="&#xe903;" glyph-name="camera" d="M814.112 591.991l127.473 73.183c23.628 14.192 42.519 2.369 42.519-21.228v-370.654c0-25.967-18.889-35.403-42.519-21.24l-127.473 73.183c-23.608 14.172-42.498 28.335-42.498 51.934v165.262c0.001 23.596 18.891 35.42 42.498 49.565zM611.099 731.297h-481.629c-49.573 0-89.711-40.128-89.711-89.724v-387.156c0-49.597 40.138-89.713 89.711-89.713h481.629c49.573 0 89.692 40.117 89.692 89.713v387.156c0 49.596-40.119 89.724-89.692 89.724zM320.711 514.101c-7.094-33.062-33.062-59.020-63.765-66.115-59.010-11.804-108.583 40.15-96.77 96.809 7.056 33.052 33.042 59.020 63.745 63.728 58.992 14.162 108.583-35.403 96.789-94.421z" />
<glyph unicode="&#xe904;" glyph-name="close" d="M40.99-18.434c5.74-5.74 13.286-8.608 20.815-8.608s15.076 2.889 20.854 8.629l420.932 421.442 420.932-421.442c5.74-5.778 13.286-8.629 20.854-8.629 7.547 0 15.076 2.889 20.815 8.608 11.518 11.479 11.518 30.131 0.020 41.649l-420.519 420.991 420.499 420.971c11.479 11.518 11.479 30.152-0.020 41.649-11.538 11.518-30.152 11.518-41.649-0.020l-420.971-421.442-420.932 421.442c-11.518 11.518-30.152 11.518-41.649 0.020-11.518-11.479-11.518-30.131-0.020-41.649l420.46-420.971-420.46-420.991c-11.479-11.479-11.479-30.152 0.020-41.649z" />
<glyph unicode="&#xe905;" glyph-name="data" d="M263.426 291.635c16.973-16.973 44.625-16.416 60.931 1.185l101.923 111.183 131.828-120.528c16.565-15.121 42.365-13.457 56.851 3.672l181.718 217.296c13.269 15.717 11.307 39.172-4.41 52.48-17.569 14.862-43.848 12.641-58.632-4.967l-149.844-180.345-130.345 126.492c-14.972 14.525-38.913 14.046-53.257-1.075l-137.54-146.321c-15.749-16.675-15.419-42.883 0.777-59.079zM919.685 871.881h-815.37c-40.765 0-74.122-33.357-74.122-74.122v-671.749c0-40.765 33.357-74.122 74.122-74.122h815.37c40.765 0 74.122 33.357 74.122 74.122v671.749c0 40.804-33.357 74.122-74.122 74.122zM919.685 126.003h-815.37v565.196h815.37v-565.196z" />
<glyph unicode="&#xe906;" glyph-name="enlarge" d="M316.087 324.27l-149.513-149.513-118.573 118.573v-309.33h309.33l-118.573 118.573 149.513 149.513zM357.33 912h-309.33v-309.33l118.573 118.573 149.513-149.513 72.173 72.173-149.513 149.513zM707.913 324.27l-72.173-72.173 149.513-149.513-118.573-118.573h309.33v309.33l-118.573-118.573zM666.67 912l118.573-118.573-149.513-149.513 72.173-72.173 149.513 149.513 118.573-118.573v309.33z" />
<glyph unicode="&#xe907;" glyph-name="hand" d="M943.72 409.207c-32.353 32.312-79.935 35.215-112.288 2.903l-92.473-92.4c-24.043-24.043-53.046-24.084-69.983-4.114-11.204 13.229-6.757 54.079-3.651 79.935l46.371 381.105c4.171 34.020-20.075 66.95-54.193 71.089-34.052 4.114-65.007-22.043-69.162-56.095l-51.103-299.332c-2.732-7.432-8.399-8.716-9.058 1.268l-17.4 389.098c0 34.28-27.824 62.088-62.104 62.088-34.337 0-62.161-27.808-62.161-62.088l-1.195-391.96c0.317-4.529-3.578-5.838-4.285-0.659l-55.274 305.943c-6.066 33.776-38.419 58.104-72.138 51.997-33.792-6.066-56.209-40.305-50.152-74.065l49.249-358.038c0.041-6.399-2.057-10.009-5.090-1.87l-73.463 196.305c-11.473 32.312-46.964 51.144-79.342 39.671-32.312-11.489-49.217-48.932-37.719-81.244l128.705-420.516c0.675-2.342 1.407-4.618 2.098-6.919l0.285-0.862c0.057-0.073 0.057-0.114 0.098-0.187 35.63-109.711 138.746-189.069 260.418-189.069 77.846 0 158.757 27.45 220.316 74.699v0c66.519 40.029 279.574 269.102 279.574 269.102 32.312 32.353 27.491 81.862-4.862 114.215v0zM943.72 409.207v0z" />
<glyph unicode="&#xe908;" glyph-name="mapping" d="M797.654 352.527c98.503 0 184.683-80.027 184.683-184.683 0-98.503-80.027-184.683-184.683-184.683-98.503 0-184.683 80.027-184.683 184.683 6.153 98.503 86.188 184.683 184.683 184.683v0 0zM175.877 851.17c80.027 0 141.593-61.558 141.593-141.593s-61.558-141.593-141.593-141.593-141.593 61.558-141.593 141.593c0 73.873 61.558 141.593 141.593 141.593v0 0zM779.186 875.802c61.558 0 110.81-49.252 110.81-110.81s-49.252-110.81-110.81-110.81c-61.558 0-110.81 49.252-110.81 110.81s49.252 110.81 110.81 110.81v0 0zM108.157 223.241c55.405 0 98.503-43.090 98.503-98.503s-43.090-98.503-98.503-98.503c-55.405 0-98.503 43.090-98.503 98.503s43.090 98.503 98.503 98.503v0 0zM748.403 789.613h73.873v-787.992h-73.873v787.992zM83.536 161.683h787.992v-73.873h-787.992v73.873zM200.499 721.894l590.994-523.274-49.252-49.252-590.994 523.274 49.252 49.252z" />
<glyph unicode="&#xe909;" glyph-name="menu" d="M96.307 638.031h831.386c29.693 0 59.386 23.755 59.386 59.386 0 29.693-23.755 59.386-59.386 59.386h-831.386c-29.693 0-59.386-23.755-59.386-59.386 0-29.693 23.755-59.386 59.386-59.386zM96.307 388.614h831.386c29.693 0 59.386 23.755 59.386 59.386s-23.755 59.386-59.386 59.386h-831.386c-35.631 0-59.386-29.693-59.386-59.386s23.755-59.386 59.386-59.386zM96.307 139.2h831.386c29.693 0 59.386 23.755 59.386 59.386 0 29.693-23.755 59.386-59.386 59.386h-831.386c-29.693 0-59.386-23.755-59.386-59.386 0-29.693 23.755-59.386 59.386-59.386v0z" />
<glyph unicode="&#xe90a;" glyph-name="modeling" d="M510.508 953.593l-407.169-235.044 409.816-236.589 407.148 235.044-409.795 236.589zM63.911 180.098l408.504-235.845v473.233l-408.504 235.845v-473.233zM548.598 414.42v-470.164l408.516 235.845v470.163l-408.516-235.844z" />
<glyph unicode="&#xe90b;" glyph-name="org" horiz-adv-x="1025" d="M942.984 328.236h-143.496v143.496h-239.156v95.664h143.496c26.44 0 47.832 21.392 47.832 47.832v239.156c0 26.44-21.392 47.832-47.832 47.832h-382.652c-26.44 0-47.832-21.392-47.832-47.832v-239.156c0-26.44 21.392-47.832 47.832-47.832h143.496v-95.664h-239.156v-143.496h-143.496c-26.44 0-47.832-21.392-47.832-47.832v-239.156c0-26.44 21.392-47.832 47.832-47.832h334.82c26.44 0 47.832 21.392 47.832 47.832v239.156c0 26.44-21.392 47.832-47.832 47.832h-143.496v95.664h478.316v-95.664h-143.496c-26.44 0-47.832-21.392-47.832-47.832v-239.156c0-26.44 21.392-47.832 47.832-47.832h334.82c26.44 0 47.832 21.392 47.832 47.832v239.156c0 26.44-21.392 47.832-47.832 47.832z" />
<glyph unicode="&#xe90c;" glyph-name="pc" d="M936 872h-848c-25.106 0-45.429-20.323-45.429-45.429v-605.713c0-25.077 20.323-45.429 45.429-45.429h287.713v-75.713l-60.571-60.571v-15.142h393.713v15.142l-60.571 60.571v75.713h287.713c25.077 0 45.429 20.352 45.429 45.429v605.713c0 25.106-20.352 45.429-45.429 45.429zM920.858 296.571h-817.713v514.858h817.713v-514.858z" />
<glyph unicode="&#xe90d;" glyph-name="people" d="M446.348 851.088c0-45.242 36.676-81.918 81.918-81.918s81.918 36.676 81.918 81.918c0 45.242-36.676 81.918-81.918 81.918s-81.918-36.676-81.918-81.918zM704.806 660.636c0 0 4.616 91.492-91.926 91.492h-167.4c-93.104 0-92.422-84.49-92.484-91.492l0.030-259.636c1.518-14.004 15.336-29.96 32.502-29.96 17.072 0 29.62 15.46 31.168 29.496l29.062-413.468c2.138-21.038 17.010-28.876 35.29-28.876 18.248 0 33.090 7.838 35.228 28.876h25.808c2.23-21.038 17.040-28.876 35.228-28.876 18.31 0 33.152 7.838 35.352 28.876l29.93 413.746c0-14.036 13.602-29.836 30.736-29.836 17.102 0 30.766 16.018 32.284 30.022l-0.806 259.636z" />
<glyph unicode="&#xe90e;" glyph-name="photo" d="M253.615 193.578s-1.448 10.313 2.612 21.338c4.671 12.685 15.098 26.492 17.834 29.774 5.112 6.135 53.581 46.289 78.714 57.245 9.231 4.020 63.78 22.274 79.112 35.565s21.329 39.704 2.925 57.079-51.753 90.474-51.753 90.474-35.65 133.408 40.252 187.46c27.348 20.699 56.738 29.903 80.502 29.903 27.601 0 57.401-6.139 73.607-14.31 29.39-14.824 46.962-36.045 61.592-67.211 17.636-37.567 13.548-90.616 5.881-119.345-7.991-29.926-28.369-77.191-57.505-109.392-29.298-32.382 1.273-57.761 8.944-60.317 35.22-11.739 97.796-38.726 129.733-64.769 15.482-12.627 35.173-31.965 42.265-50.75 2.994-7.935 1.836-15.838 2.302-21.656l-517.017-1.082zM878.87-28.934h-220.12c-20.285 0-36.683 16.398-36.683 36.683s16.398 36.686 36.683 36.686h220.12c20.254 0 36.688 16.436 36.688 36.683v183.439c0 20.287 16.396 36.685 36.683 36.685s36.686-16.398 36.686-36.685v-183.439c0-60.681-49.378-110.058-110.063-110.058zM328.563-28.934h-183.437c-60.682 0-110.062 49.378-110.062 110.059v183.438c0 20.287 16.438 36.685 36.686 36.685s36.685-16.398 36.685-36.685v-183.439c0-20.254 16.471-36.683 36.686-36.683h183.437c20.253 0 36.685-16.4 36.685-36.686s-16.44-36.683-36.686-36.683zM71.749 594.752c-20.254 0-36.686 16.439-36.686 36.686v183.436c0 60.681 49.38 110.060 110.062 110.060h183.437c20.253 0 36.685-16.438 36.685-36.685s-16.438-36.685-36.685-36.685h-183.436c-20.215 0-36.686-16.47-36.686-36.685v-183.437c0-20.252-16.438-36.683-36.685-36.683zM952.248 594.752c-20.287 0-36.683 16.439-36.683 36.686v183.436c0 20.214-16.44 36.685-36.688 36.685h-220.121c-20.285 0-36.683 16.438-36.683 36.685 0 20.254 16.398 36.685 36.683 36.685h220.12c60.683 0 110.063-49.379 110.063-110.060v-183.437c0-20.254-16.4-36.685-36.685-36.685z" />
<glyph unicode="&#xe90f;" glyph-name="ranging1" d="M958.905 610.276c-0.308 0.308-0.725 0.404-1.045 0.695l-282.836 282.831c-0.286 0.321-0.383 0.733-0.69 1.041-5.318 5.318-12.301 7.904-19.268 7.843-7.683 0.274-15.43-2.348-21.29-8.212-1.863-1.859-2.943-4.119-4.189-6.299l-557.763-557.763c-2.179-1.242-4.44-2.322-6.303-4.185-5.86-5.86-8.477-13.607-8.208-21.286-0.060-6.971 2.521-13.954 7.839-19.272 0.308-0.308 0.721-0.404 1.037-0.69l282.831-282.831c0.295-0.321 0.391-0.743 0.703-1.056 5.373-5.373 12.449-7.913 19.494-7.791 7.569-0.178 15.179 2.5 20.957 8.278 1.658 1.658 2.565 3.703 3.734 5.621l558.87 558.874c1.927 1.172 3.98 2.084 5.646 3.75 5.773 5.773 8.451 13.386 8.273 20.952 0.126 7.046-2.418 14.121-7.791 19.499zM431.644 187.6c-12.206-12.184-31.985-12.184-44.187 0l-163.975 164.087c-12.202 12.184-12.202 31.928 0 44.118 12.202 12.18 31.987 12.18 44.191 0l163.97-164.087c12.207-12.188 12.207-31.935 0.001-44.118zM490.103 356.3c-11.624-11.615-30.463-11.615-42.086 0l-111.366 111.371c-11.615 11.619-11.615 30.463 0 42.086 11.624 11.619 30.463 11.619 42.086 0l111.366-111.371c11.619-11.619 11.619-30.463 0-42.086zM658.829 414.781c-12.184-12.202-31.939-12.202-44.118 0l-164.087 163.97c-12.18 12.206-12.18 31.987 0 44.191 12.184 12.202 31.939 12.202 44.118 0l164.087-163.974c12.18-12.201 12.18-31.99 0-44.187zM717.287 583.491c-11.624-11.619-30.463-11.619-42.086 0l-111.366 111.365c-11.615 11.619-11.615 30.467 0 42.086 11.624 11.619 30.463 11.619 42.086 0l111.366-111.366c11.62-11.623 11.62-30.466 0-42.085z" />
<glyph unicode="&#xe910;" glyph-name="ranging2" d="M743.582 255.789l-423.623 436.227v204.336h-255.486v-257.319h203.184l436.040-449.017v-189.23h255.829v255.002h-215.943zM150.522 812.467h86.052v-86.715h-86.052v86.715zM874.207 86.559h-85.236v76.791l9.144 9.144h76.092v-85.935z" />
<glyph unicode="&#xe911;" glyph-name="rotate1" d="M903.972 612.667l-37.426-73.054c42.191-21.635 67.435-46.545 67.435-66.69 0-54.386-164.423-133.393-422.013-133.393-34.029 0-67.236 1.554-99.531 4.309l8.984 99.287-191.51-123.465 166.311-155.715 8.862 98.099c34.761-2.999 70.466-4.553 106.916-4.553 250.526 0 504.096 74.006 504.096 215.476-0.077 37.516-19.482 92.223-112.137 139.712zM89.91 472.91c0 51.342 148.831 126.83 391.272 133.027l-2.087 82.051c-226.971-5.786-471.268-75.565-471.268-215.065 0-43.302 25.321-105.407 145.864-155.304l31.396 75.854c-70.19 29.020-95.177 60.082-95.177 79.463zM510.446 58.083c-24.711 0-54.097 28.898-78.641 77.363l-73.221-37.105c51.22-101.085 110.859-122.309 151.862-122.309 80.073 0 149.396 81.062 190.277 222.373l-78.885 22.786c-32.507-112.678-79.373-163.121-111.392-163.121zM505.026 837.917c54.264 0 113.768-103.474 130.927-252.26l-98.831-9.151 156.118-165.977 122.887 191.884-98.176-9.106c-20.882 191.457-105.431 326.693-212.925 326.693-68.989 0-129.495-54.296-170.331-152.883l75.854-31.441c26.098 63.049 62.304 102.241 94.477 102.241zM620.096 208.179c0-22.546 18.282-40.828 40.828-40.828s40.828 18.282 40.828 40.828c0 22.546-18.282 40.828-40.828 40.828s-40.828-18.282-40.828-40.828zM126.795 356.273c0-22.546 18.282-40.828 40.828-40.828s40.828 18.282 40.828 40.828c0 22.546-18.282 40.828-40.828 40.828s-40.828-18.282-40.828-40.828z" />
<glyph unicode="&#xe912;" glyph-name="rotate2" d="M563.247 28.352c-176.287 0-326.951 108.837-389.126 262.892l-71.972-18.966c-17.145-4.522-28.575-1.193-43.774 8.102-15.889 9.672-20.16 33.913-15.575 50.996l76.18 226.027c4.522 17.082 16.14 32.029 33.285 36.551s34.793-2.701 47.416-15.261l148.089-166.93c12.623-12.561 17.208-29.392 12.623-46.537-4.522-17.082-16.894-29.392-34.039-33.913l-65.817-17.334c51.435-116.185 167.432-197.389 302.646-197.389 183.007 0 331.347 148.34 331.347 331.347s-148.34 331.347-331.347 331.347c-43.711 0-85.286-8.667-123.533-24.053 0 0-16.266-20.16-53.194-20.16-24.367 0-44.15 19.783-44.15 44.15 0 41.638 39.566 46.725 39.566 46.725 54.952 26.503 116.311 41.701 181.374 41.701 231.805 0 419.648-187.906 419.648-419.648s-187.906-419.648-419.648-419.648v0zM563.247 558.47c60.981 0 110.47-49.426 110.47-110.407s-49.489-110.47-110.47-110.47c-60.981-0.063-110.47 49.426-110.47 110.407s49.489 110.47 110.47 110.47v0z" />
<glyph unicode="&#xe913;" glyph-name="search" d="M948.411-14.972c-31.869-31.911-83.517-31.911-115.371 0l-164.836 165.082c-0.607 0.593-0.997 1.301-1.576 1.924-59.355-32.982-127.603-51.88-200.304-51.88-228.529 0-413.768 185.513-413.768 414.36s185.238 414.375 413.768 414.375 413.768-185.527 413.768-414.375c0-96.878-33.444-185.787-89.055-256.335l157.376-157.592c31.869-31.897 31.869-83.632 0-115.559zM466.337 805.203c-160.311 0-290.256-130.134-290.256-290.691s129.946-290.675 290.256-290.675 290.271 130.12 290.271 290.675c0 160.557-129.96 290.691-290.271 290.691z" />
<glyph unicode="&#xe914;" glyph-name="sector" d="M991.469 738.235c-271.735 185.106-706.995 181.406-972.178-8.276l486.089-420.004 486.089 428.27zM606.89 195.81c0-56.063-45.447-101.51-101.51-101.51s-101.51 45.447-101.51 101.51c0 56.063 45.447 101.51 101.51 101.51s101.51-45.447 101.51-101.51z" />
<glyph unicode="&#xe915;" glyph-name="set" d="M934.285 355.405l-18.683 9.755c-29.196 17.019-48.895 48.702-48.895 85.043 0 36.273 19.636 67.952 48.834 85.041l18.744 9.816c19.507 10.198 30.021 33.023 26.453 54.248-3.633 10.966-7.714 21.929-12.174 32.765v0c-4.527 10.842-9.372 21.488-14.536 31.814-12.495 17.528-36.080 26.265-57.119 19.635l-20.146-6.314c-32.764-8.604-69.037-0.125-94.726 25.565-25.691 25.688-34.167 61.96-25.564 94.664l6.313 20.144c6.628 20.976-2.105 44.561-19.634 57.118-10.331 5.167-20.908 10.072-31.813 14.538v0c-10.836 4.524-21.798 8.542-32.767 12.174-21.228 3.57-44.113-6.946-54.247-26.453l-9.758-18.682c-17.079-29.26-48.767-48.895-85.041-48.895-36.272 0-67.953 19.635-85.039 48.895l-9.752 18.682c-10.199 19.506-33.019 30.023-54.248 26.453-11.032-3.572-21.931-7.652-32.831-12.111v0c-10.841-4.529-21.487-9.372-31.814-14.538-17.528-12.558-26.264-36.141-19.633-57.181l6.312-20.144c8.604-32.767 0.063-69.038-25.563-94.664-25.626-25.69-61.9-34.169-94.666-25.626l-20.207 6.376c-20.977 6.63-44.561-2.107-57.056-19.635-5.228-10.326-10.072-20.971-14.538-31.814v0c-4.523-10.836-8.54-21.798-12.173-32.765-3.57-21.294 6.944-44.114 26.453-54.311l18.682-9.752c29.26-17.087 48.893-48.767 48.893-85.041s-19.633-67.896-48.831-84.977l-18.743-9.821c-19.509-10.199-30.023-33.019-26.453-54.248 3.633-10.968 7.714-21.93 12.173-32.766v0c4.529-10.836 9.372-21.482 14.538-31.812 12.495-17.527 36.078-26.266 57.118-19.636l20.076 6.314c32.77 8.604 69.108 0.125 94.734-25.566 25.626-25.625 34.166-61.898 25.626-94.6l-6.375-20.272c-6.568-20.978 2.105-44.56 19.633-57.118 10.326-5.168 20.909-10.071 31.814-14.537v0c10.836-4.525 21.798-8.543 32.765-12.174 21.224-3.57 44.113 6.946 54.251 26.453l9.751 18.682c17.085 29.197 48.768 48.895 85.102 48.895 36.273 0 67.898-19.636 84.977-48.768l9.822-18.809c10.197-19.506 33.019-30.022 54.247-26.453 10.969 3.631 21.932 7.716 32.767 12.174v0c10.835 4.528 21.482 9.37 31.813 14.537 17.528 12.495 26.263 36.077 19.634 57.118l-6.313 20.081c-8.604 32.764-0.127 69.1 25.564 94.789 25.625 25.628 61.899 34.17 94.6 25.566l20.21-6.378c20.972-6.565 44.561 2.107 57.118 19.635 5.165 10.33 10.073 20.908 14.537 31.814v0c4.525 10.836 8.54 21.799 12.173 32.764 3.63 21.294-6.883 44.113-26.39 54.312v0zM509.524 210.713c-132.291 0-239.483 107.265-239.483 239.491 0 132.219 107.192 239.484 239.483 239.484 132.298 0 239.491-107.265 239.491-239.484 0-132.226-107.192-239.491-239.491-239.491v0z" />
<glyph unicode="&#xe916;" glyph-name="shrink" d="M831.909 694.491l152.091 152.092-73.417 73.417-152.092-152.091-120.617 120.617v-314.663h314.663zM192.091 201.509l-152.091-152.092 73.417-73.417 152.092 152.091 120.617-120.617v314.663h-314.663zM952.537 322.137h-314.663v-314.663l120.617 120.617 152.092-152.091 73.417 73.417-152.091 152.092zM113.417 920l-73.417-73.417 152.091-152.092-120.617-120.617h314.663v314.663l-120.617-120.617z" />
<glyph unicode="&#xe917;" glyph-name="stack" horiz-adv-x="1182" d="M1094.886 402.286v-0.071l-484.611-198.613c-0.071-0.071-0.142-0.071-0.207-0.071l-0.207-0.071c-5.995-2.439-12.404-3.833-19.163-3.833-6.828 0-13.283 1.394-19.232 3.833v0l-0.207 0.071c-0.071 0-0.142 0-0.207 0.071l-484.57 198.678c-18.147 7.454-31.010 25.157-31.010 45.854 0 27.454 22.48 49.687 50.147 49.687 6.859 0 13.308-1.394 19.232-3.763v0.071l0.207-0.142c0.056-0.071 0.167-0.071 0.197-0.071l465.444-190.805 465.444 190.805c0 0 0.142 0 0.278 0.071l0.142 0.142v-0.071c5.854 2.369 12.263 3.763 19.096 3.763 27.738 0 50.178-22.233 50.178-49.687 0-20.697-12.823-38.4-30.939-45.854zM1094.886 617.624v0l-484.611-198.678c-0.071 0-0.142-0.071-0.207-0.071l-0.207-0.071c-5.995-2.369-12.404-3.833-19.163-3.833-6.828 0-13.283 1.465-19.232 3.833v0l-0.207 0.071c-0.071 0-0.142 0.071-0.207 0.071l-484.57 198.678c-18.147 7.454-31.010 25.157-31.010 45.854s12.864 38.47 31.010 45.885v0l484.57 198.613c0.071 0.071 0.142 0.142 0.207 0.142l0.207 0.029c5.949 2.455 12.404 3.849 19.232 3.849 6.757 0 13.172-1.394 19.163-3.833v0l0.207-0.029c0.071 0 0.142-0.071 0.207-0.071l484.611-198.678c18.119-7.414 30.939-25.187 30.939-45.885 0-20.713-12.823-38.413-30.939-45.869zM105.6 282.493c6.859 0 13.308-1.394 19.232-3.833v0l0.207-0.071c0.071 0 0.167 0 0.207-0.071l465.444-190.734 465.444 190.734c0 0.071 0.142 0.071 0.278 0.071l0.142 0.071c5.854 2.439 12.263 3.833 19.096 3.833 27.738 0 50.178-22.233 50.178-49.687 0-20.697-12.823-38.47-30.939-45.925v0l-484.611-198.613c-0.071 0-0.142-0.071-0.207-0.142h-0.207c-5.995-2.51-12.404-3.833-19.163-3.833-6.828 0-13.283 1.323-19.232 3.833v0h-0.207c-0.071 0.071-0.142 0.142-0.207 0.142l-484.57 198.613c-18.147 7.454-31.010 25.228-31.010 45.925-0.015 27.454 22.468 49.687 50.131 49.687z" />
<glyph unicode="&#xe918;" glyph-name="state" d="M512.324 897.508c-247.21 0-447.615-200.403-447.615-447.615s200.404-447.615 447.615-447.615 447.615 200.403 447.615 447.615-200.404 447.615-447.615 447.615zM512.324 114.182c-185.408 0-335.711 150.303-335.711 335.711s150.303 335.711 335.711 335.711 335.711-150.303 335.711-335.711-150.303-335.711-335.711-335.711zM288.517 449.893c0-123.605 100.202-223.807 223.807-223.807s223.807 100.202 223.807 223.807c0 123.605-100.202 223.807-223.807 223.807s-223.807-100.202-223.807-223.807z" />
<glyph unicode="&#xe919;" glyph-name="checkbox-checked" d="M854.195 894.9c57.329 0 104.248-46.919 104.248-104.266v-685.082c0-57.346-46.92-104.248-104.248-104.248h-685.099c-57.347 0-104.248 46.902-104.248 104.248v685.082c0 57.347 46.901 104.266 104.248 104.266zM154.193 807.399v-713.181c212.24 0 433.933 0 711.319 0v713.181zM214.569 379.917v0zM238.486 413.128l245.997-177.020-47.817-66.449-245.997 177.020 47.817 66.449zM419.644 182.111v0zM781.127 747.891l66.171-48.202-394.595-541.696-66.171 48.202 394.595 541.696z" />
<glyph unicode="&#xe91a;" glyph-name="checkbox-unchecked" d="M854.195 894.899c57.329 0 104.248-46.92 104.248-104.264v-685.082c0-57.344-46.92-104.248-104.248-104.248h-685.097c-57.349 0-104.248 46.904-104.248 104.248v685.082c0 57.349 46.899 104.264 104.248 104.264zM154.194 807.398v-713.18c212.239 0 433.935 0 711.316 0v713.18z" />
<glyph unicode="&#xe91b;" glyph-name="radio-checked" d="M512 928c-265.11 0-480-214.89-480-480s214.89-480 480-480 480 214.89 480 480-214.89 480-480 480zM512 88c-198.81 0-360 161.19-360 360s161.19 360 360 360c198.81 0 360-161.19 360-360s-161.19-360-360-360zM332 448c0 99.42 80.58 180 180 180s180-80.58 180-180c0-99.42-80.58-180-180-180s-180 80.58-180 180z" />
<glyph unicode="&#xe91c;" glyph-name="radio-checked2" d="M512 928c-265.112 0-480-214.888-480-480s214.888-480 480-480 480 214.888 480 480-214.888 480-480 480zM512 328c-66.268 0-120 53.728-120 120s53.732 120 120 120c66.272 0 120-53.732 120-120s-53.728-120-120-120z" />
<glyph unicode="&#xe91d;" glyph-name="radio-unchecked" d="M512 928c-265.11 0-480-214.89-480-480s214.89-480 480-480 480 214.89 480 480-214.89 480-480 480zM512 88c-198.81 0-360 161.19-360 360s161.19 360 360 360c198.81 0 360-161.19 360-360s-161.19-360-360-360z" />
<glyph unicode="&#xe91e;" glyph-name="minus" horiz-adv-x="1041" d="M587.537 391.799h286.196c31.654 0 57.209 25.663 57.209 57.317 0 31.544-25.61 57.154-57.209 57.154h-686.809c-31.597 0-57.208-25.61-57.208-57.154 0-31.548 25.611-57.317 57.155-57.317h400.667z" />
<glyph unicode="&#xe91f;" glyph-name="plus" horiz-adv-x="1041" d="M592.408 367.85h314.763c34.816 0 62.923 28.226 62.923 63.034 0 34.691-28.169 62.86-62.923 62.86h-755.367c-34.754 0.005-62.923-28.164-62.923-62.855 0-34.696 28.171-63.034 62.865-63.034h440.662zM466.537 367.885v-314.763c0-34.816 28.226-62.923 63.034-62.923 34.691 0 62.86 28.169 62.86 62.923v755.367c0 34.749-28.169 62.923-62.86 62.923-34.696 0-63.034-28.171-63.034-62.865v-440.662z" />
</font>
</defs>
</svg>
